<?xml version="1.0" encoding="utf-8"?>
<svg xmlns="http://www.w3.org/2000/svg" data-name="Layer 1" viewBox="0 0 64 80" x="0px" y="0px">
  <path d="M14.34,26.55l4.1-8.21c-.63-.23-1.22-.53-1.78-.89l-4.1,8.21c.63,.23,1.22,.53,1.78,.89Z"/>
  <path d="M45.61,11.56l-13.62-2.06c-.04,.68-.14,1.34-.31,1.98l13.44,2.03c.09-.67,.26-1.33,.49-1.95Z"/>
  <path d="M56,35.05v-10.1c-.33,.03-.66,.05-1,.05s-.67-.02-1-.05v10.1c.33-.03,.66-.05,1-.05s.67,.02,1,.05Z"/>
  <path d="M46.02,49.39c-.3-.59-.53-1.21-.7-1.87l-8.34,3.09c.3,.59,.53,1.21,.7,1.87l8.34-3.09Z"/>
  <path d="M15.12,42.9l5.3,5.58c.44-.51,.93-.97,1.46-1.38l-5.3-5.58c-.44,.51-.93,.97-1.46,1.38Z"/>
  <path d="M18.66,32.44c.18,.64,.28,1.3,.32,1.98l3.37-.54c-.16-.64-.27-1.31-.31-1.98l-3.38,.54Z"/>
  <path d="M29.15,20.02l-1.51-2.77c-.55,.38-1.14,.71-1.76,.96l1.52,2.78c.55-.37,1.14-.7,1.75-.97Z"/>
  <path d="M44.5,36.8c-.32,.58-.69,1.14-1.11,1.66l2.78,1.85c.31-.59,.68-1.15,1.1-1.66l-2.77-1.85Z"/>
  <path d="M30.13,42.36l-.69,2.75c.67,.09,1.32,.25,1.94,.48l.69-2.75c-.66-.1-1.31-.26-1.94-.48Z"/>
  <path d="M46.23,19.81l-3.58,2.89c.47,.48,.89,1,1.27,1.56l3.45-2.79c-.43-.51-.81-1.07-1.14-1.66Z"/>
  <path d="M24,31c0,5.51,4.49,10,10,10s10-4.49,10-10-4.49-10-10-10-10,4.49-10,10Zm10-5.56c1.53,0,2.78,1.24,2.78,2.78s-1.24,2.78-2.78,2.78-2.78-1.24-2.78-2.78,1.24-2.78,2.78-2.78Zm-4.44,8.89c0-1.22,1-2.22,2.22-2.22h4.44c1.22,0,2.22,1,2.22,2.22v3.31c-1.27,.85-2.8,1.35-4.44,1.35s-3.17-.5-4.44-1.35v-3.31Z"/>
  <path d="M9,43c4.41,0,8-3.59,8-8s-3.59-8-8-8S1,30.59,1,35s3.59,8,8,8Zm0-13c1.38,0,2.5,1.12,2.5,2.5s-1.12,2.5-2.5,2.5-2.5-1.12-2.5-2.5,1.12-2.5,2.5-2.5Zm-4,8c0-1.1,.9-2,2-2h4c1.1,0,2,.9,2,2v1.46c-1.06,.95-2.46,1.54-4,1.54s-2.94-.59-4-1.54v-1.46Z"/>
  <path d="M22,1c-4.41,0-8,3.59-8,8s3.59,8,8,8,8-3.59,8-8S26.41,1,22,1Zm0,3c1.38,0,2.5,1.12,2.5,2.5s-1.12,2.5-2.5,2.5-2.5-1.12-2.5-2.5,1.12-2.5,2.5-2.5Zm4,9.46c-1.06,.95-2.46,1.54-4,1.54s-2.94-.59-4-1.54v-1.46c0-1.1,.9-2,2-2h4c1.1,0,2,.9,2,2v1.46Z"/>
  <path d="M55,7c-4.41,0-8,3.59-8,8s3.59,8,8,8,8-3.59,8-8-3.59-8-8-8Zm0,3c1.38,0,2.5,1.12,2.5,2.5s-1.12,2.5-2.5,2.5-2.5-1.12-2.5-2.5,1.12-2.5,2.5-2.5Zm4,9.46c-1.06,.95-2.46,1.54-4,1.54s-2.94-.59-4-1.54v-1.46c0-1.1,.9-2,2-2h4c1.1,0,2,.9,2,2v1.46Z"/>
  <path d="M36,55c0-4.41-3.59-8-8-8s-8,3.59-8,8,3.59,8,8,8,8-3.59,8-8Zm-8-5c1.38,0,2.5,1.12,2.5,2.5s-1.12,2.5-2.5,2.5-2.5-1.12-2.5-2.5,1.12-2.5,2.5-2.5Zm4,9.46c-1.06,.95-2.46,1.54-4,1.54s-2.94-.59-4-1.54v-1.46c0-1.1,.9-2,2-2h4c1.1,0,2,.9,2,2v1.46Z"/>
  <path d="M55,37c-4.41,0-8,3.59-8,8s3.59,8,8,8,8-3.59,8-8-3.59-8-8-8Zm0,3c1.38,0,2.5,1.12,2.5,2.5s-1.12,2.5-2.5,2.5-2.5-1.12-2.5-2.5,1.12-2.5,2.5-2.5Zm4,9.46c-1.06,.95-2.46,1.54-4,1.54s-2.94-.59-4-1.54v-1.46c0-1.1,.9-2,2-2h4c1.1,0,2,.9,2,2v1.46Z"/>
</svg>